<svg width="43" height="32" viewBox="0 0 43 32" fill="none" xmlns="http://www.w3.org/2000/svg">
<path d="M21.7908 19.7061C21.894 19.5714 21.9857 19.448 22.0774 19.3245C22.9677 18.1426 23.9879 17.0878 25.2565 16.2836C26.4219 15.543 27.6943 15.0829 29.0737 14.9146C30.988 14.6789 32.8374 14.9856 34.6638 15.5243C36.2572 15.9918 37.778 16.6389 39.2834 17.3234C39.3408 17.3496 39.3981 17.372 39.4936 17.4169C39.4592 17.2561 39.4363 17.1252 39.4057 16.998C39.0274 15.3784 38.6492 13.7588 38.2632 12.1429C38.2441 12.0681 38.1754 11.9746 38.1027 11.9409C36.3069 11.118 34.4384 10.5271 32.4744 10.239C31.1179 10.0408 29.7653 10.0146 28.4127 10.2989C26.1583 10.7777 24.5114 12.0419 23.3957 13.9982C23.2657 14.2263 23.1473 14.462 23.0327 14.6976C22.7767 15.2101 22.364 15.4981 21.7794 15.4943C21.1948 15.4943 20.7821 15.1989 20.5337 14.6864C20.0255 13.6241 19.3607 12.6778 18.4436 11.911C17.3546 10.9983 16.0822 10.4784 14.6799 10.2652C12.6586 9.95476 10.687 10.2353 8.73825 10.7627C7.39325 11.1293 6.09411 11.6118 4.84464 12.2252C4.0193 12.6292 3.11754 12.2738 2.86917 11.4547C2.79275 11.2041 2.79275 10.9535 2.86535 10.6991C3.48053 8.496 4.10336 6.29662 4.71472 4.09351C4.84464 3.62969 5.11593 3.31176 5.55534 3.09107C7.16399 2.29436 8.82995 1.66597 10.5991 1.31437C13.3999 0.760783 16.151 0.891697 18.8295 1.93528C19.8039 2.31306 20.7171 2.80306 21.5501 3.42771C21.6074 3.46886 21.6609 3.51 21.7182 3.55114C21.7297 3.55863 21.7412 3.55863 21.7259 3.55489C22.2226 3.22947 22.685 2.89283 23.1817 2.60482C24.5725 1.79688 26.0857 1.32559 27.6867 1.11612C30.2888 0.775744 32.8145 1.11612 35.2714 1.9652C36.2534 2.30558 37.201 2.73199 38.1486 3.15466C38.8555 3.4726 39.1077 4.28427 38.7561 4.94633C38.4123 5.6009 37.606 5.84403 36.9221 5.50739C35.3554 4.7406 33.7277 4.14587 32.0006 3.85038C29.708 3.45389 27.4574 3.56985 25.2871 4.47129C24.4847 4.80419 23.7396 5.23434 23.174 5.90388C23.0938 5.99739 23.0288 6.10586 22.9601 6.21059C22.4633 6.96242 21.3552 7.07089 20.805 6.37517C20.1554 5.55602 19.311 5.01739 18.371 4.59099C17.2935 4.10473 16.1548 3.83168 14.978 3.71198C12.5669 3.4726 10.2896 3.94763 8.08868 4.85656C7.83267 4.96129 7.57666 5.0735 7.32447 5.19693C7.25952 5.22686 7.19074 5.29793 7.17163 5.36525C6.85449 6.47242 6.54499 7.58333 6.23549 8.69424C6.23166 8.70546 6.23931 8.71668 6.24313 8.7466C6.28898 8.73538 6.33483 8.7279 6.38068 8.71294C7.79446 8.23043 9.23116 7.84516 10.7175 7.6357C12.6319 7.36639 14.5347 7.35516 16.4185 7.85638C18.3481 8.36882 19.9606 9.36752 21.2521 10.8637C21.4317 11.0732 21.6036 11.2864 21.7947 11.5183C21.8558 11.4397 21.9131 11.3761 21.9666 11.3088C23.5753 9.25156 25.6959 8.03966 28.2942 7.61699C29.7003 7.38883 31.1065 7.39631 32.5164 7.57585C35.0765 7.90127 37.4876 8.68676 39.8069 9.78644C40.3533 10.0445 40.6667 10.4298 40.8004 11.017C41.4461 13.8411 42.1148 16.6576 42.772 19.4779C42.9019 20.0277 42.7644 20.5103 42.302 20.8656C41.8397 21.2172 41.3353 21.2359 40.8119 20.9928C39.5891 20.4242 38.3702 19.8407 37.136 19.2984C35.791 18.7036 34.404 18.2136 32.952 17.9181C31.4962 17.6227 30.0366 17.5516 28.5884 17.9406C27.1403 18.3259 25.9443 19.1113 24.9317 20.1811C24.1675 20.9853 23.5561 21.8942 23.025 22.8555C22.7614 23.3343 22.3755 23.6148 21.8099 23.6186C21.2368 23.6223 20.8318 23.3567 20.5681 22.8667C19.9873 21.8007 19.3072 20.8058 18.436 19.9417C17.2094 18.7298 15.7575 17.963 14.0151 17.7386C12.544 17.5478 11.1111 17.7573 9.6935 18.1351C8.00844 18.5877 6.41507 19.2759 4.84081 20.0165C4.12246 20.3532 3.41558 20.7048 2.69722 21.0377C2.01326 21.3519 1.21849 21.0676 0.897526 20.413C0.580382 19.7659 0.83639 18.9692 1.50889 18.6588C3.22835 17.862 4.94398 17.0616 6.68254 16.3172C8.03518 15.7375 9.44514 15.3111 10.9048 15.0492C13.0407 14.6677 15.1346 14.735 17.1445 15.6327C18.7264 16.3397 19.9873 17.4394 21.061 18.756C21.3017 19.059 21.5387 19.3769 21.7908 19.7061Z" fill="#9720BC"/>
<path d="M21.7908 31.4361C20.5223 31.4361 19.502 30.4449 19.502 29.2105C19.502 27.9724 20.5184 26.9737 21.7794 26.97C23.0403 26.9662 24.072 27.9687 24.072 29.1993C24.072 30.4374 23.0518 31.4323 21.7908 31.4361Z" fill="#9720BC"/>
</svg>
