<svg width="104" height="68" viewBox="0 0 104 68" fill="none" xmlns="http://www.w3.org/2000/svg">
<path d="M52.1691 28.4502C52.3216 28.2521 52.4571 28.0706 52.5927 27.8891C53.9088 26.1509 55.4169 24.5997 57.2922 23.4171C59.015 22.328 60.8959 21.6514 62.935 21.4038C65.7649 21.0573 68.4987 21.5084 71.1987 22.3004C73.5541 22.988 75.8022 23.9396 78.0277 24.9463C78.1124 24.9848 78.1971 25.0178 78.3384 25.0838C78.2875 24.8472 78.2536 24.6547 78.2084 24.4677C77.6492 22.0859 77.09 19.7041 76.5196 17.3279C76.4913 17.2179 76.3896 17.0803 76.2823 17.0308C73.6275 15.8207 70.8655 14.9516 67.9621 14.528C65.9569 14.2365 63.9574 14.198 61.9578 14.6161C58.6252 15.3201 56.1908 17.1794 54.5414 20.0562C54.3494 20.3917 54.1743 20.7383 54.0048 21.0848C53.6264 21.8384 53.0163 22.2619 52.1521 22.2564C51.2879 22.2564 50.6779 21.8219 50.3107 21.0683C49.5595 19.5061 48.5766 18.1145 47.221 16.9868C45.6112 15.6447 43.7303 14.8801 41.6573 14.5666C38.6692 14.11 35.7546 14.5225 32.8739 15.2981C30.8857 15.8372 28.9652 16.5468 27.1182 17.4489C25.8981 18.043 24.565 17.5204 24.1979 16.3158C24.0849 15.9472 24.0849 15.5787 24.1922 15.2046C25.1017 11.9648 26.0223 8.73038 26.9261 5.4905C27.1181 4.80843 27.5192 4.34087 28.1688 4.01633C30.5468 2.8447 33.0095 1.92059 35.6247 1.40353C39.765 0.589438 43.8319 0.78196 47.7915 2.31664C49.2319 2.8722 50.5818 3.59278 51.8132 4.51139C51.8979 4.5719 51.977 4.63241 52.0617 4.69291C52.0787 4.70391 52.0956 4.70391 52.073 4.69841C52.8073 4.21986 53.4908 3.7248 54.2251 3.30125C56.2811 2.11311 58.5179 1.42003 60.8846 1.112C64.7312 0.611441 68.4649 1.112 72.0968 2.36064C73.5485 2.8612 74.9493 3.48827 76.3501 4.10984C77.3951 4.5774 77.7679 5.77104 77.2482 6.74465C76.7398 7.70726 75.548 8.0648 74.5369 7.56975C72.2211 6.44211 69.8148 5.56751 67.2617 5.13296C63.8727 4.5499 60.5457 4.72042 57.3374 6.04607C56.1512 6.53563 55.0498 7.1682 54.2138 8.15281C54.0952 8.29033 53.9992 8.44985 53.8975 8.60386C53.1632 9.70949 51.5251 9.86901 50.7118 8.84589C49.7515 7.64125 48.5032 6.84916 47.1137 6.22209C45.5208 5.50701 43.8376 5.10546 42.0979 4.92944C38.5337 4.5774 35.1672 5.27598 31.9137 6.61263C31.5352 6.76665 31.1568 6.93167 30.784 7.11319C30.688 7.1572 30.5863 7.26171 30.5581 7.36072C30.0892 8.98891 29.6317 10.6226 29.1742 12.2563C29.1685 12.2728 29.1798 12.2893 29.1855 12.3333C29.2533 12.3168 29.321 12.3058 29.3888 12.2838C31.4788 11.5742 33.6026 11.0076 35.7998 10.6996C38.6297 10.3036 41.4426 10.2871 44.2273 11.0241C47.0798 11.7777 49.4634 13.2464 51.3726 15.4467C51.6381 15.7547 51.8923 16.0682 52.1747 16.4093C52.2651 16.2938 52.3498 16.2002 52.4289 16.1012C54.8069 13.0759 57.9418 11.2937 61.7827 10.6721C63.8614 10.3366 65.94 10.3476 68.0243 10.6116C71.8087 11.0902 75.3729 12.2453 78.8015 13.8625C79.6093 14.242 80.0724 14.8086 80.2701 15.6722C81.2247 19.8252 82.2132 23.9671 83.1847 28.1146C83.3768 28.9232 83.1734 29.6328 82.49 30.1554C81.8065 30.6724 81.0609 30.6999 80.2871 30.3424C78.4796 29.5063 76.6777 28.6482 74.8533 27.8506C72.865 26.976 70.8146 26.2554 68.6682 25.8209C66.5161 25.3863 64.3584 25.2818 62.2177 25.8539C60.0769 26.4204 58.3089 27.5756 56.8121 29.1487C55.6824 30.3314 54.7786 31.668 53.9935 33.0817C53.6038 33.7858 53.0333 34.1983 52.1973 34.2038C51.35 34.2093 50.7513 33.8188 50.3615 33.0982C49.503 31.5305 48.4976 30.0673 47.2097 28.7967C45.3966 27.0145 43.2501 25.8869 40.6744 25.5568C38.4998 25.2763 36.3816 25.5843 34.286 26.1399C31.7951 26.8055 29.4397 27.8176 27.1125 28.9067C26.0506 29.4018 25.0056 29.9188 23.9437 30.4084C22.9326 30.8704 21.7578 30.4524 21.2833 29.4898C20.8145 28.5382 21.1929 27.3665 22.187 26.91C24.7289 25.7383 27.265 24.5612 29.8351 23.4666C31.8346 22.614 33.9189 21.9869 36.0766 21.6019C39.2341 21.0408 42.3294 21.1398 45.3005 22.46C47.639 23.4996 49.503 25.1168 51.0902 27.053C51.4461 27.4985 51.7963 27.9661 52.1691 28.4502Z" fill="white"/>
<path d="M5.93643 64.4024C4.60904 64.3804 2.99359 64.1438 1.48545 63.4122C1.34424 63.3407 1.20302 63.2692 1.07311 63.1812C0.338811 62.6917 0.254085 61.6025 0.898009 60.9975C1.29905 60.6234 1.77352 60.6124 2.3892 60.8709C3.01618 61.135 3.64881 61.4045 4.30968 61.564C5.38288 61.8281 6.48433 61.8776 7.58578 61.663C8.01507 61.5805 8.40481 61.41 8.72113 61.091C9.382 60.4199 9.22949 59.3968 8.34833 59.0447C7.68181 58.7807 6.9701 58.6322 6.26969 58.4562C5.33205 58.2196 4.37181 58.0601 3.45676 57.7686C2.24799 57.378 1.2821 56.6575 0.898009 55.4088C0.321867 53.5441 0.92625 51.5749 2.88062 50.4472C3.98772 49.8092 5.20213 49.5671 6.46739 49.5451C8.00377 49.5231 9.47802 49.7762 10.8393 50.5242C11.5397 50.9093 11.7939 51.3988 11.6583 52.0809C11.5341 52.7355 10.941 53.137 10.2688 52.9995C10.0429 52.9555 9.82257 52.862 9.60793 52.7685C8.37657 52.2129 7.09437 52.0424 5.75568 52.2349C5.22473 52.312 4.74461 52.5045 4.34922 52.884C3.6601 53.5441 3.6827 54.8092 4.77285 55.1833C5.49585 55.4308 6.2471 55.5958 6.99835 55.7664C8.10544 56.0139 9.23513 56.1789 10.2575 56.707C11.342 57.268 12.0876 58.0821 12.2684 59.2978C12.5338 61.1075 11.7148 62.6697 10.0542 63.5663C8.87363 64.2043 7.59708 64.4079 5.93643 64.4024Z" fill="white"/>
<path d="M39.9514 58.1096C39.9514 59.3307 39.9514 60.5079 39.9514 61.7235C40.0757 61.7235 40.183 61.7235 40.296 61.7235C42.1317 61.7235 43.9675 61.7235 45.8032 61.7235C45.9783 61.7235 46.1591 61.74 46.3342 61.7785C46.7239 61.861 47.0007 62.0921 47.0741 62.4826C47.125 62.7466 47.1476 63.0327 47.108 63.2967C47.0177 63.8688 46.611 64.1713 45.9614 64.1768C44.8712 64.1823 43.7754 64.1768 42.6853 64.1823C41.3184 64.1823 39.9571 64.1823 38.5902 64.1823C38.4038 64.1823 38.2117 64.1713 38.031 64.1328C37.3249 63.9953 36.9352 63.5717 36.8674 62.8732C36.8561 62.7356 36.8504 62.5981 36.8504 62.4606C36.8504 58.8027 36.8504 55.1448 36.8504 51.4923C36.8504 51.3163 36.8504 51.1403 36.8843 50.9698C37.0368 50.1942 37.5508 49.7872 38.3981 49.7817C40.3581 49.7761 42.3125 49.7817 44.2725 49.7817C44.7809 49.7817 45.2892 49.7817 45.7976 49.7817C46.82 49.7817 47.2775 50.3042 47.125 51.2888C47.0459 51.8114 46.7522 52.1084 46.2156 52.1964C46.0518 52.2239 45.8767 52.2349 45.7129 52.2349C43.9054 52.2404 42.0978 52.2349 40.2903 52.2349C40.1887 52.2349 40.087 52.2349 39.9627 52.2349C39.9627 53.3626 39.9627 54.4627 39.9627 55.6123C40.0644 55.6123 40.1774 55.6123 40.2847 55.6123C41.8832 55.6123 43.4817 55.6123 45.0859 55.6123C45.1537 55.6123 45.2158 55.6123 45.2836 55.6123C46.5036 55.5903 46.8313 56.3384 46.6279 57.301C46.5319 57.7466 46.2156 57.9886 45.7693 58.0601C45.5829 58.0931 45.3965 58.0986 45.2101 58.1041C43.5834 58.1096 41.9566 58.1041 40.3242 58.1041C40.2056 58.1096 40.0926 58.1096 39.9514 58.1096Z" fill="white"/>
<path d="M86.3196 62.8127C86.2857 63.0272 86.2631 63.1922 86.2292 63.3572C86.1106 63.9128 85.7435 64.2373 85.1786 64.3253C84.8962 64.3694 84.5912 64.3694 84.3088 64.3253C83.6536 64.2208 83.2977 63.8193 83.2017 63.1152C83.1847 62.9997 83.1847 62.8787 83.1847 62.7577C83.1847 58.9017 83.1791 55.0403 83.1904 51.1843C83.1904 50.9148 83.2356 50.6343 83.3259 50.3812C83.5293 49.8312 84.145 49.5341 84.8567 49.5891C85.8903 49.6716 86.3253 50.1337 86.3309 51.1513C86.3309 52.4715 86.3309 53.7916 86.3309 55.1118C86.3309 55.2053 86.3309 55.3043 86.3309 55.3758C86.5512 55.1833 86.7658 54.9963 86.9805 54.8092C88.5564 53.4726 91.9172 53.5221 93.3406 56.0964C93.9507 57.2075 94.1088 58.4012 94.041 59.6333C93.9789 60.7389 93.7078 61.7841 93.0413 62.7027C91.8212 64.3804 89.3302 64.9359 87.534 63.8963C87.1386 63.6708 86.8336 63.2967 86.4891 62.9942C86.4326 62.9502 86.393 62.8952 86.3196 62.8127ZM90.9231 59.2813C90.8553 58.7697 90.8271 58.3572 90.7424 57.9611C90.5277 56.9985 89.7595 56.3219 88.8501 56.2614C87.7317 56.1899 86.9071 56.6465 86.5569 57.6146C86.1784 58.6542 86.1841 59.7268 86.5681 60.7609C86.9014 61.663 87.6583 62.1196 88.675 62.1141C89.5675 62.1086 90.3413 61.5915 90.635 60.7224C90.7875 60.2274 90.8384 59.7048 90.9231 59.2813Z" fill="white"/>
<path d="M55.801 62.8841C55.4734 63.1812 55.191 63.5057 54.8464 63.7478C53.2422 64.8644 50.1356 64.7324 48.7743 62.1911C48.1078 60.9479 48.0061 59.6168 48.136 58.2581C48.2377 57.1965 48.5823 56.2229 49.294 55.3868C50.723 53.7091 53.423 53.4451 55.1627 54.8092C55.383 54.9797 55.6089 55.1502 55.8292 55.3208C55.8123 55.3483 55.7953 55.3813 55.7784 55.4088C55.784 55.3153 55.7897 55.2218 55.7897 55.1282C55.7897 53.8466 55.8123 52.5594 55.784 51.2778C55.7502 49.6826 56.8629 49.3911 58.0265 49.6716C58.5461 49.7981 58.8738 50.2437 58.9302 50.8433C58.9415 50.9918 58.9472 51.1348 58.9472 51.2833C58.9472 55.0787 58.9472 58.8742 58.9472 62.6696C58.9472 62.9062 58.9246 63.1482 58.8738 63.3792C58.7608 63.8688 58.4501 64.2043 57.9305 64.2868C57.6085 64.3363 57.2696 64.3638 56.9533 64.3198C56.2981 64.2318 55.9253 63.8083 55.8462 63.1482C55.8292 63.0602 55.8123 62.9667 55.801 62.8841ZM55.8518 59.0942C55.8292 58.8742 55.8123 58.5826 55.7671 58.2911C55.7332 58.0821 55.6824 57.8786 55.6089 57.6805C55.2983 56.8059 54.564 56.2834 53.615 56.2504C52.6717 56.2174 51.8697 56.6739 51.5477 57.521C51.1184 58.6377 51.1071 59.7873 51.5872 60.8929C51.9487 61.729 52.6548 62.1196 53.5812 62.1031C54.4849 62.0866 55.1345 61.674 55.5186 60.8764C55.7784 60.3374 55.8179 59.7488 55.8518 59.0942Z" fill="white"/>
<path d="M16.6798 63.0052C16.6798 63.0217 16.6798 63.1207 16.6798 63.2142C16.6798 64.2868 16.6798 65.3594 16.6798 66.4321C16.6798 66.6136 16.6629 66.8006 16.629 66.9766C16.5217 67.5267 16.1997 67.8952 15.6236 67.9832C15.3016 68.0327 14.9627 68.0492 14.6464 67.9942C13.9742 67.8842 13.6014 67.4332 13.5449 66.7566C13.5336 66.6081 13.528 66.4651 13.528 66.3165C13.528 62.7796 13.528 59.2427 13.528 55.7058C13.528 55.5133 13.528 55.3208 13.5619 55.1283C13.72 54.2262 14.3357 53.9456 15.1773 53.9951C16.1771 54.0501 16.5386 54.4352 16.6403 55.4253C16.6403 55.4473 16.6572 55.4693 16.6685 55.5078C16.8775 55.2878 17.0583 55.0513 17.2786 54.8642C19.1369 53.2856 22.2323 53.7861 23.5483 55.8709C24.0962 56.7345 24.3335 57.6861 24.3787 58.6872C24.4352 59.9193 24.2996 61.1185 23.6839 62.2296C22.2718 64.8039 18.9844 64.8974 17.3633 63.5662C17.126 63.3737 16.8888 63.1812 16.6798 63.0052ZM16.5782 59.0722C16.6572 59.6003 16.6911 60.0403 16.7984 60.4639C17.047 61.4375 17.8039 62.0646 18.7359 62.1086C19.7978 62.1636 20.6337 61.6685 20.9614 60.7334C21.3172 59.7158 21.3229 58.6762 20.9783 57.6586C20.6789 56.7785 19.9277 56.2724 18.9674 56.2504C18.0129 56.2284 17.2277 56.7014 16.9058 57.5815C16.7307 58.0766 16.6742 58.6212 16.5782 59.0722Z" fill="white"/>
<path d="M78.4739 62.7466C78.1463 63.3737 77.7396 63.8248 77.1409 64.0943C75.6497 64.7709 73.0401 64.4023 72.029 62.5541C71.5941 61.762 71.5546 60.9259 71.8596 60.0788C72.1025 59.4077 72.6278 59.0117 73.283 58.7532C74.006 58.4671 74.7686 58.3571 75.5424 58.3076C76.4236 58.2526 77.3104 58.2416 78.1915 58.2086C78.2649 58.2086 78.3384 58.1976 78.4231 58.1921C78.4626 57.7466 78.4457 57.323 78.2593 56.9215C78.0673 56.5034 77.6888 56.3274 77.2539 56.2559C76.1411 56.0799 75.0905 56.3384 74.0512 56.7069C73.8817 56.7674 73.7179 56.8334 73.5428 56.8665C72.9949 56.9765 72.5318 56.6849 72.3849 56.1624C72.2041 55.5243 72.4753 54.9302 73.1136 54.6717C74.3336 54.1766 75.6045 53.9181 76.9319 53.9511C77.734 53.9676 78.5248 54.0721 79.2704 54.3802C80.513 54.8972 81.14 55.8653 81.3434 57.125C81.4111 57.5375 81.4394 57.9611 81.4394 58.3846C81.4507 59.8313 81.4563 61.2835 81.4337 62.7301C81.4281 63.0877 81.3547 63.4672 81.1965 63.7863C80.9593 64.2813 80.2532 64.4738 79.5528 64.3308C78.9823 64.2098 78.6547 63.8633 78.5474 63.3132C78.5248 63.1537 78.5078 62.9887 78.4739 62.7466ZM78.4118 59.8148C78.0164 59.8148 77.6097 59.7873 77.2143 59.8203C76.6382 59.8698 76.0564 59.9193 75.4972 60.0623C74.9098 60.2053 74.6838 60.6289 74.7403 61.212C74.7911 61.7125 75.1413 62.1141 75.6723 62.2681C77.2539 62.7356 78.6886 61.4595 78.4118 59.8148Z" fill="white"/>
<path d="M28.2139 59.8313C28.2648 61.0029 29.0725 61.8665 30.27 62.0481C31.3658 62.2131 32.422 62.0811 33.4331 61.6245C33.5009 61.5915 33.5687 61.564 33.6421 61.542C34.2183 61.3385 34.6871 61.454 34.9695 61.8721C35.2632 62.3066 35.218 62.9612 34.8057 63.3077C34.5063 63.5553 34.1448 63.7643 33.772 63.9018C31.8741 64.6004 29.9593 64.6444 28.084 63.8468C26.3387 63.0987 25.4293 61.729 25.2259 59.8973C25.0847 58.6542 25.2429 57.455 25.915 56.3714C26.9826 54.6497 28.6093 53.9181 30.6371 53.9566C31.9306 53.9841 33.0773 54.3582 33.9923 55.2878C34.8283 56.1404 35.2124 57.1855 35.3141 58.3351C35.3423 58.6267 35.3479 58.9182 35.331 59.2097C35.3141 59.5233 35.1051 59.7048 34.8 59.7708C34.6193 59.8093 34.4273 59.8258 34.2409 59.8258C32.3486 59.8313 30.4564 59.8258 28.5642 59.8258C28.4568 59.8313 28.3495 59.8313 28.2139 59.8313ZM28.2252 58.2361C29.7221 58.2361 31.2246 58.2361 32.7158 58.2361C32.8344 56.971 31.9589 56.0249 30.688 55.9809C29.1798 55.9258 28.2987 57.0095 28.2252 58.2361Z" fill="white"/>
<path d="M61.0258 56.9545C61.0258 55.1228 61.0258 53.291 61.0258 51.4593C61.0258 51.2778 61.0258 51.0908 61.0597 50.9148C61.2405 50.0512 61.9409 49.6221 62.9294 49.7486C63.771 49.8586 64.2003 50.2987 64.2398 51.1293C64.2624 51.5418 64.2511 51.9544 64.2511 52.3669C64.2511 55.2988 64.2511 58.2306 64.2511 61.1625C64.2511 61.52 64.2511 61.52 64.6239 61.52C66.2902 61.52 67.9565 61.52 69.6228 61.52C69.6906 61.52 69.7527 61.52 69.8205 61.52C71.0067 61.5255 71.5715 62.2736 71.2213 63.3847C71.0688 63.8743 70.6621 64.1603 70.0634 64.1768C69.4138 64.1878 68.7642 64.1823 68.1146 64.1823C66.3297 64.1823 64.5392 64.1823 62.7543 64.1823C62.5792 64.1823 62.3984 64.1713 62.2233 64.1383C61.4777 63.9898 61.0823 63.5552 61.0428 62.8126C61.0145 62.3451 61.0258 61.8775 61.0258 61.41C61.0258 59.9248 61.0258 58.4396 61.0258 56.9545Z" fill="white"/>
<path d="M99.6782 53.9676C100.802 53.9566 101.887 54.1491 102.898 54.6442C103.627 55.0017 103.762 55.8763 103.186 56.4429C102.83 56.7894 102.429 56.7619 101.988 56.6134C101.378 56.4099 100.763 56.1899 100.13 56.0909C99.6613 56.0193 99.1529 56.0854 98.6841 56.1789C98.1814 56.2779 97.8594 56.7014 97.8707 57.1085C97.882 57.5375 98.1927 57.8621 98.7462 57.9721C99.4749 58.1151 100.204 58.2361 100.938 58.3626C101.616 58.4836 102.277 58.6432 102.858 59.0392C103.451 59.4462 103.773 60.0018 103.841 60.6949C103.988 62.2351 103.299 63.3407 101.819 63.9568C100.734 64.4078 99.5935 64.4518 98.4356 64.3693C97.4866 64.2978 96.549 64.1383 95.6848 63.7257C95.2103 63.5002 94.8658 63.1702 94.8658 62.6091C94.8658 61.8445 95.5323 61.399 96.2779 61.6465C96.7749 61.8115 97.2663 62.026 97.7804 62.1086C98.4412 62.2186 99.119 62.2626 99.7912 62.2516C100.108 62.2461 100.463 62.1086 100.718 61.916C101.237 61.531 101.152 60.8159 100.548 60.5739C100.085 60.3869 99.5709 60.3208 99.0795 60.2163C98.3621 60.0623 97.6335 59.9688 96.9331 59.7598C95.9672 59.4737 95.295 58.8522 95.1143 57.8511C94.9166 56.7674 95.1877 55.8158 96.0519 55.0677C96.9161 54.3197 97.9668 54.0446 99.0851 53.9621C99.2828 53.9566 99.4805 53.9676 99.6782 53.9676Z" fill="white"/>
<path d="M52.1691 45.7002C50.2938 45.7002 48.7856 44.2425 48.7856 42.4273C48.7856 40.6066 50.2881 39.1379 52.1521 39.1324C54.0161 39.1269 55.5412 40.6011 55.5412 42.4108C55.5412 44.2315 54.0331 45.6947 52.1691 45.7002Z" fill="white"/>
</svg>
